<svg width="332" height="365" viewBox="0 0 332 365" fill="none" xmlns="http://www.w3.org/2000/svg">
<mask id="mask0_25_220" style="mask-type:alpha" maskUnits="userSpaceOnUse" x="0" y="0" width="332" height="365">
<rect width="332" height="365" rx="12" fill="#F9F7F5"/>
</mask>
<g mask="url(#mask0_25_220)">
<path opacity="0.6" d="M0.347223 888.208H44.4444M44.4444 888.208H88.8889M44.4444 888.208V933M44.4444 888.208V843.764M88.8889 888.208H133.333M88.8889 888.208V933M88.8889 888.208V843.764M133.333 888.208H177.431M133.333 888.208V933M133.333 888.208V843.764M0.347223 843.764H44.4444M44.4444 843.764H88.8889M44.4444 843.764V799.319M88.8889 843.764H133.333M88.8889 843.764V799.319M133.333 843.764H177.431M133.333 843.764V799.319M0.347224 799.319H44.4444M44.4444 799.319H88.8889M44.4444 799.319L44.4444 754.875M88.8889 799.319H133.333M88.8889 799.319V754.875M133.333 799.319H177.431M133.333 799.319V754.875M0.347224 754.875H44.4444M44.4444 754.875H88.8889M44.4444 754.875V710.43M88.8889 754.875H133.333M88.8889 754.875V710.43M133.333 754.875H177.431M133.333 754.875V710.43M0.347225 710.43H44.4444M44.4444 710.43H88.8889M44.4444 710.43V665.986M88.8889 710.43H133.333M88.8889 710.43V665.986M133.333 710.43H177.431M133.333 710.43V665.986M0.347225 665.986H44.4444M44.4444 665.986H88.8889M44.4444 665.986V621.542M88.8889 665.986H133.333M88.8889 665.986V621.542M133.333 665.986H177.431M133.333 665.986V621.542M0.347226 621.542H44.4444M44.4444 621.542H88.8889M44.4444 621.542V577.097M88.8889 621.542H133.333M88.8889 621.542L88.8889 577.097M133.333 621.542H177.431M133.333 621.542V577.097M0.347226 577.097H44.4444M44.4444 577.097H88.8889M44.4444 577.097V532.653M88.8889 577.097H133.333M88.8889 577.097V532.653M133.333 577.097H177.431M133.333 577.097V532.653M0.347227 532.653H44.4444M44.4444 532.653H88.8889M44.4444 532.653V488.208M88.8889 532.653H133.333M88.8889 532.653V488.208M133.333 532.653H177.431M133.333 532.653V488.208M0.347228 488.208H44.4444M44.4444 488.208H88.8889M44.4444 488.208L44.4445 443.764M88.8889 488.208H133.333M88.8889 488.208V443.764M133.333 488.208H177.431M133.333 488.208V443.764M0.347228 443.764H44.4445M44.4445 443.764H88.8889M44.4445 443.764V399.319M88.8889 443.764H133.333M88.8889 443.764V399.319M133.333 443.764H177.431M133.333 443.764V399.319M0.347229 399.319H44.4445M44.4445 399.319H88.8889M44.4445 399.319V354.875M88.8889 399.319H133.333M88.8889 399.319V354.875M133.333 399.319H177.431M133.333 399.319V354.875M0.347229 354.875H44.4445M44.4445 354.875H88.8889M44.4445 354.875V310.431M88.8889 354.875H133.333M88.8889 354.875V310.431M133.333 354.875H177.431M133.333 354.875V310.431M0.34723 310.431H44.4445M44.4445 310.431H88.8889M44.4445 310.431V265.986M88.8889 310.431H133.333M88.8889 310.431V265.986M133.333 310.431H177.431M133.333 310.431L133.333 265.986M0.34723 265.986H44.4445M44.4445 265.986H88.8889M44.4445 265.986V221.542M88.8889 265.986H133.333M88.8889 265.986V221.542M133.333 265.986H177.431M133.333 265.986V221.542M0.347231 221.542H44.4445M44.4445 221.542H88.8889M44.4445 221.542V177.097M88.8889 221.542H133.333M88.8889 221.542V177.097M133.333 221.542H177.431M133.333 221.542V177.097M0.347231 177.097H44.4445M44.4445 177.097H88.8889M44.4445 177.097L44.4445 132.653M88.8889 177.097H133.333M88.8889 177.097V132.653M133.333 177.097H177.431M133.333 177.097V132.653M0.347232 132.653H44.4445M44.4445 132.653H88.8889M44.4445 132.653V88.2083M88.8889 132.653H133.333M88.8889 132.653V88.2083M133.333 132.653H177.431M133.333 132.653V88.2083M0.347232 88.2083H44.4445M44.4445 88.2083H88.8889M44.4445 88.2083V43.7639M88.8889 88.2083H133.333M88.8889 88.2083V43.7639M133.333 88.2083H177.431M133.333 88.2083V43.7639M0.347233 43.7639H44.4445M44.4445 43.7639H88.8889M44.4445 43.7639V-0.680603M88.8889 43.7639H133.333M88.8889 43.7639V-0.680603M133.333 43.7639H177.431M133.333 43.7639V-0.680603M0.347233 -0.680603H44.4445M44.4445 -0.680603H88.8889M44.4445 -0.680603V-45.125M88.8889 -0.680603H133.333M88.8889 -0.680603L88.8889 -45.125M133.333 -0.680603H177.431M133.333 -0.680603V-45.125M0.347234 -45.125H44.4445M44.4445 -45.125L88.8889 -45.125M44.4445 -45.125V-67M88.8889 -45.125H133.333M88.8889 -45.125V-67M133.333 -45.125H177.431M133.333 -45.125V-67M0 933L1.19249e-05 -67M177.778 933L177.778 -67M133.347 888.208H177.444M177.444 888.208H221.889M177.444 888.208V933M177.444 888.208V843.764M221.889 888.208H266.333M221.889 888.208V933M221.889 888.208V843.764M266.333 888.208H310.431M266.333 888.208L266.333 933M266.333 888.208V843.764M133.347 843.764H177.444M177.444 843.764H221.889M177.444 843.764V799.319M221.889 843.764H266.333M221.889 843.764V799.319M266.333 843.764H310.431M266.333 843.764V799.319M133.347 799.319H177.444M177.444 799.319H221.889M177.444 799.319V754.875M221.889 799.319H266.333M221.889 799.319V754.875M266.333 799.319H310.431M266.333 799.319V754.875M133.347 754.875H177.444M177.444 754.875H221.889M177.444 754.875V710.43M221.889 754.875H266.333M221.889 754.875V710.43M266.333 754.875H310.431M266.333 754.875V710.43M133.347 710.43H177.444M177.444 710.43H221.889M177.444 710.43V665.986M221.889 710.43H266.333M221.889 710.43V665.986M266.333 710.43H310.431M266.333 710.43V665.986M133.347 665.986H177.444M177.444 665.986H221.889M177.444 665.986V621.542M221.889 665.986H266.333M221.889 665.986V621.542M266.333 665.986H310.431M266.333 665.986V621.542M133.347 621.542H177.444M177.444 621.542H221.889M177.444 621.542V577.097M221.889 621.542H266.333M221.889 621.542V577.097M266.333 621.542H310.431M266.333 621.542V577.097M133.347 577.097H177.444M177.444 577.097H221.889M177.444 577.097V532.653M221.889 577.097H266.333M221.889 577.097V532.653M266.333 577.097H310.431M266.333 577.097V532.653M133.347 532.653H177.444M177.444 532.653H221.889M177.444 532.653V488.208M221.889 532.653H266.333M221.889 532.653V488.208M266.333 532.653H310.431M266.333 532.653V488.208M133.347 488.208H177.444M177.444 488.208H221.889M177.444 488.208V443.764M221.889 488.208H266.333M221.889 488.208V443.764M266.333 488.208H310.431M266.333 488.208V443.764M133.347 443.764H177.444M177.444 443.764H221.889M177.444 443.764V399.319M221.889 443.764H266.333M221.889 443.764V399.319M266.333 443.764H310.431M266.333 443.764V399.319M133.347 399.319H177.444M177.444 399.319H221.889M177.444 399.319V354.875M221.889 399.319H266.333M221.889 399.319V354.875M266.333 399.319H310.431M266.333 399.319V354.875M133.347 354.875H177.444M177.444 354.875H221.889M177.444 354.875V310.431M221.889 354.875H266.333M221.889 354.875V310.431M266.333 354.875H310.431M266.333 354.875V310.431M133.347 310.431H177.444M177.444 310.431H221.889M177.444 310.431L177.444 265.986M221.889 310.431H266.333M221.889 310.431L221.889 265.986M266.333 310.431H310.431M266.333 310.431V265.986M133.347 265.986H177.444M177.444 265.986H221.889M177.444 265.986V221.542M221.889 265.986H266.333M221.889 265.986V221.542M266.333 265.986H310.431M266.333 265.986V221.542M133.347 221.542H177.444M177.444 221.542H221.889M177.444 221.542V177.097M221.889 221.542H266.333M221.889 221.542V177.097M266.333 221.542H310.431M266.333 221.542V177.097M133.347 177.097H177.444M177.444 177.097H221.889M177.444 177.097V132.653M221.889 177.097H266.333M221.889 177.097V132.653M266.333 177.097H310.431M266.333 177.097V132.653M133.347 132.653H177.444M177.444 132.653H221.889M177.444 132.653V88.2083M221.889 132.653H266.333M221.889 132.653V88.2083M266.333 132.653H310.431M266.333 132.653V88.2083M133.347 88.2083H177.444M177.444 88.2083H221.889M177.444 88.2083V43.7639M221.889 88.2083H266.333M221.889 88.2083V43.7639M266.333 88.2083H310.431M266.333 88.2083V43.7639M133.347 43.7639H177.444M177.444 43.7639H221.889M177.444 43.7639V-0.680603M221.889 43.7639H266.333M221.889 43.7639V-0.680603M266.333 43.7639H310.431M266.333 43.7639V-0.680603M133.347 -0.680603H177.444M177.444 -0.680603H221.889M177.444 -0.680603V-45.125M221.889 -0.680603H266.333M221.889 -0.680603V-45.125M266.333 -0.680603H310.431M266.333 -0.680603V-45.125M133.347 -45.125H177.444M177.444 -45.125L221.889 -45.125M177.444 -45.125V-67M221.889 -45.125H266.333M221.889 -45.125V-67M266.333 -45.125H310.431M266.333 -45.125V-67M133 933L133 -67M310.778 933V-67" stroke="url(#paint0_linear_25_220)" stroke-width="0.694444"/>
</g>
<defs>
<linearGradient id="paint0_linear_25_220" x1="0" y1="433.001" x2="181" y2="433.001" gradientUnits="userSpaceOnUse">
<stop stop-color="#F7CBD9"/>
<stop offset="1" stop-color="#F7CBD9" stop-opacity="0"/>
</linearGradient>
</defs>
</svg>
