<svg width="1463" height="403" viewBox="0 0 1463 403" fill="none" xmlns="http://www.w3.org/2000/svg">
<rect opacity="0.5" x="0.727539" width="1462" height="403" fill="#FCEDF2"/>
<mask id="mask0_736_111" style="mask-type:alpha" maskUnits="userSpaceOnUse" x="1" y="0" width="824" height="403">
<rect x="1" width="823.637" height="403" rx="12" fill="#F9F7F5"/>
</mask>
<g mask="url(#mask0_736_111)">
<path opacity="0.6" d="M1.8614 980.679H111.259M111.259 980.679H221.519M111.259 980.679V1030.13M111.259 980.679V931.608M221.519 980.679H331.778M221.519 980.679V1030.13M221.519 980.679V931.608M331.778 980.679H441.176M331.778 980.679V1030.13M331.778 980.679V931.608M1.8614 931.608H111.259M111.259 931.608H221.519M111.259 931.608V882.536M221.519 931.608H331.778M221.519 931.608V882.536M331.778 931.608H441.176M331.778 931.608V882.536M1.8614 882.536H111.259M111.259 882.536H221.519M111.259 882.536L111.259 833.465M221.519 882.536H331.778M221.519 882.536V833.465M331.778 882.536H441.176M331.778 882.536V833.465M1.86141 833.465H111.259M111.259 833.465H221.519M111.259 833.465V784.393M221.519 833.465H331.778M221.519 833.465V784.393M331.778 833.465H441.176M331.778 833.465V784.393M1.86141 784.393H111.259M111.259 784.393H221.519M111.259 784.393V735.322M221.519 784.393H331.778M221.519 784.393V735.322M331.778 784.393H441.176M331.778 784.393V735.322M1.86141 735.322H111.259M111.259 735.322H221.519M111.259 735.322V686.25M221.519 735.322H331.778M221.519 735.322V686.25M331.778 735.322H441.176M331.778 735.322V686.25M1.86141 686.25H111.259M111.259 686.25H221.519M111.259 686.25V637.178M221.519 686.25H331.778M221.519 686.25L221.519 637.178M331.778 686.25H441.176M331.778 686.25V637.178M1.86141 637.178H111.259M111.259 637.178H221.519M111.259 637.178V588.107M221.519 637.178H331.778M221.519 637.178V588.107M331.778 637.178H441.176M331.778 637.178V588.107M1.86141 588.107H111.259M111.259 588.107H221.519M111.259 588.107V539.035M221.519 588.107H331.778M221.519 588.107V539.035M331.778 588.107H441.176M331.778 588.107V539.035M1.86141 539.035H111.259M111.259 539.035H221.519M111.259 539.035L111.259 489.964M221.519 539.035H331.778M221.519 539.035V489.964M331.778 539.035H441.176M331.778 539.035V489.964M1.86142 489.964H111.259M111.259 489.964H221.519M111.259 489.964V440.892M221.519 489.964H331.778M221.519 489.964V440.892M331.778 489.964H441.176M331.778 489.964V440.892M1.86142 440.892H111.259M111.259 440.892H221.519M111.259 440.892V391.821M221.519 440.892H331.778M221.519 440.892V391.821M331.778 440.892H441.176M331.778 440.892V391.821M1.86142 391.821H111.259M111.259 391.821H221.519M111.259 391.821V342.749M221.519 391.821H331.778M221.519 391.821V342.749M331.778 391.821H441.176M331.778 391.821V342.749M1.86142 342.749H111.259M111.259 342.749H221.519M111.259 342.749V293.678M221.519 342.749H331.778M221.519 342.749V293.678M331.778 342.749H441.176M331.778 342.749L331.778 293.678M1.86142 293.678H111.259M111.259 293.678H221.519M111.259 293.678V244.606M221.519 293.678H331.778M221.519 293.678V244.606M331.778 293.678H441.176M331.778 293.678V244.606M1.86142 244.606H111.259M111.259 244.606H221.519M111.259 244.606V195.535M221.519 244.606H331.778M221.519 244.606V195.535M331.778 244.606H441.176M331.778 244.606V195.535M1.86142 195.535H111.259M111.259 195.535H221.519M111.259 195.535L111.259 146.463M221.519 195.535H331.778M221.519 195.535V146.463M331.778 195.535H441.176M331.778 195.535V146.463M1.86142 146.463H111.259M111.259 146.463H221.519M111.259 146.463V97.3916M221.519 146.463H331.778M221.519 146.463V97.3916M331.778 146.463H441.176M331.778 146.463V97.3916M1.86143 97.3916H111.259M111.259 97.3916H221.519M111.259 97.3916V48.3201M221.519 97.3916H331.778M221.519 97.3916V48.3201M331.778 97.3916H441.176M331.778 97.3916V48.3201M1.86143 48.3201H111.259M111.259 48.3201H221.519M111.259 48.3201V-0.751464M221.519 48.3201H331.778M221.519 48.3201V-0.751464M331.778 48.3201H441.176M331.778 48.3201V-0.751464M1.86143 -0.751464H111.259M111.259 -0.751464H221.519M111.259 -0.751464V-49.8229M221.519 -0.751464H331.778M221.519 -0.751464L221.519 -49.8229M331.778 -0.751464H441.176M331.778 -0.751464V-49.8229M1.86143 -49.8229H111.259M111.259 -49.8229L221.519 -49.8229M111.259 -49.8229V-73.9753M221.519 -49.8229H331.778M221.519 -49.8229V-73.9753M331.778 -49.8229H441.176M331.778 -49.8229V-73.9753M1 1030.13L1.00003 -73.9753M442.037 1030.13L442.037 -73.9753M331.812 980.679H441.21M441.21 980.679H551.47M441.21 980.679V1030.13M441.21 980.679V931.608M551.47 980.679H661.729M551.47 980.679V1030.13M551.47 980.679V931.608M661.729 980.679H771.127M661.729 980.679L661.729 1030.13M661.729 980.679V931.608M331.812 931.608H441.21M441.21 931.608H551.47M441.21 931.608V882.536M551.47 931.608H661.729M551.47 931.608V882.536M661.729 931.608H771.127M661.729 931.608V882.536M331.812 882.536H441.21M441.21 882.536H551.47M441.21 882.536V833.465M551.47 882.536H661.729M551.47 882.536V833.465M661.729 882.536H771.127M661.729 882.536V833.465M331.812 833.465H441.21M441.21 833.465H551.47M441.21 833.465V784.393M551.47 833.465H661.729M551.47 833.465V784.393M661.729 833.465H771.127M661.729 833.465V784.393M331.812 784.393H441.21M441.21 784.393H551.47M441.21 784.393V735.322M551.47 784.393H661.729M551.47 784.393V735.322M661.729 784.393H771.127M661.729 784.393V735.322M331.812 735.322H441.21M441.21 735.322H551.47M441.21 735.322V686.25M551.47 735.322H661.729M551.47 735.322V686.25M661.729 735.322H771.127M661.729 735.322V686.25M331.812 686.25H441.21M441.21 686.25H551.47M441.21 686.25V637.178M551.47 686.25H661.729M551.47 686.25V637.178M661.729 686.25H771.127M661.729 686.25V637.178M331.812 637.178H441.21M441.21 637.178H551.47M441.21 637.178V588.107M551.47 637.178H661.729M551.47 637.178V588.107M661.729 637.178H771.127M661.729 637.178V588.107M331.812 588.107H441.21M441.21 588.107H551.47M441.21 588.107V539.035M551.47 588.107H661.729M551.47 588.107V539.035M661.729 588.107H771.127M661.729 588.107V539.035M331.812 539.035H441.21M441.21 539.035H551.47M441.21 539.035V489.964M551.47 539.035H661.729M551.47 539.035V489.964M661.729 539.035H771.127M661.729 539.035V489.964M331.812 489.964H441.21M441.21 489.964H551.47M441.21 489.964V440.892M551.47 489.964H661.729M551.47 489.964V440.892M661.729 489.964H771.127M661.729 489.964V440.892M331.812 440.892H441.21M441.21 440.892H551.47M441.21 440.892V391.821M551.47 440.892H661.729M551.47 440.892V391.821M661.729 440.892H771.127M661.729 440.892V391.821M331.812 391.821H441.21M441.21 391.821H551.47M441.21 391.821V342.749M551.47 391.821H661.729M551.47 391.821V342.749M661.729 391.821H771.127M661.729 391.821V342.749M331.812 342.749H441.21M441.21 342.749H551.47M441.21 342.749L441.21 293.678M551.47 342.749H661.729M551.47 342.749L551.47 293.678M661.729 342.749H771.127M661.729 342.749V293.678M331.812 293.678H441.21M441.21 293.678H551.47M441.21 293.678V244.606M551.47 293.678H661.729M551.47 293.678V244.606M661.729 293.678H771.127M661.729 293.678V244.606M331.812 244.606H441.21M441.21 244.606H551.47M441.21 244.606V195.535M551.47 244.606H661.729M551.47 244.606V195.535M661.729 244.606H771.127M661.729 244.606V195.535M331.812 195.535H441.21M441.21 195.535H551.47M441.21 195.535V146.463M551.47 195.535H661.729M551.47 195.535V146.463M661.729 195.535H771.127M661.729 195.535V146.463M331.812 146.463H441.21M441.21 146.463H551.47M441.21 146.463V97.3916M551.47 146.463H661.729M551.47 146.463V97.3916M661.729 146.463H771.127M661.729 146.463V97.3916M331.812 97.3916H441.21M441.21 97.3916H551.47M441.21 97.3916V48.3201M551.47 97.3916H661.729M551.47 97.3916V48.3201M661.729 97.3916H771.127M661.729 97.3916V48.3201M331.812 48.3201H441.21M441.21 48.3201H551.47M441.21 48.3201V-0.751464M551.47 48.3201H661.729M551.47 48.3201V-0.751464M661.729 48.3201H771.127M661.729 48.3201V-0.751464M331.812 -0.751464H441.21M441.21 -0.751464H551.47M441.21 -0.751464V-49.8229M551.47 -0.751464H661.729M551.47 -0.751464V-49.8229M661.729 -0.751464H771.127M661.729 -0.751464V-49.8229M331.812 -49.8229H441.21M441.21 -49.8229L551.47 -49.8229M441.21 -49.8229V-73.9753M551.47 -49.8229H661.729M551.47 -49.8229V-73.9753M661.729 -49.8229H771.127M661.729 -49.8229V-73.9753M330.951 1030.13L330.951 -73.9753M771.988 1030.13V-73.9753" stroke="url(#paint0_linear_736_111)" stroke-width="0.694444"/>
</g>
<mask id="mask1_736_111" style="mask-type:alpha" maskUnits="userSpaceOnUse" x="639" y="0" width="824" height="403">
<rect width="824" height="403" rx="12" transform="matrix(-1 0 0 1 1463 0)" fill="#F9F7F5"/>
</mask>
<g mask="url(#mask1_736_111)">
<path opacity="0.6" d="M1481.48 980.679H1369.43M1369.43 980.679H1256.49M1369.43 980.679V1030.13M1369.43 980.679V931.607M1256.49 980.679H1143.55M1256.49 980.679V1030.13M1256.49 980.679V931.607M1143.55 980.679H1031.5M1143.55 980.679V1030.13M1143.55 980.679V931.607M1481.48 931.607H1369.43M1369.43 931.607H1256.49M1369.43 931.607V882.536M1256.49 931.607H1143.55M1256.49 931.607V882.536M1143.55 931.607H1031.5M1143.55 931.607V882.536M1481.48 882.536H1369.43M1369.43 882.536H1256.49M1369.43 882.536L1369.43 833.464M1256.49 882.536H1143.55M1256.49 882.536V833.464M1143.55 882.536H1031.5M1143.55 882.536V833.464M1481.48 833.464H1369.43M1369.43 833.464H1256.49M1369.43 833.464V784.393M1256.49 833.464H1143.55M1256.49 833.464V784.393M1143.55 833.464H1031.5M1143.55 833.464V784.393M1481.48 784.393H1369.43M1369.43 784.393H1256.49M1369.43 784.393V735.321M1256.49 784.393H1143.55M1256.49 784.393V735.321M1143.55 784.393H1031.5M1143.55 784.393V735.321M1481.48 735.321H1369.43M1369.43 735.321H1256.49M1369.43 735.321V686.25M1256.49 735.321H1143.55M1256.49 735.321V686.25M1143.55 735.321H1031.5M1143.55 735.321V686.25M1481.48 686.25H1369.43M1369.43 686.25H1256.49M1369.43 686.25V637.178M1256.49 686.25H1143.55M1256.49 686.25L1256.49 637.178M1143.55 686.25H1031.5M1143.55 686.25V637.178M1481.48 637.178H1369.43M1369.43 637.178H1256.49M1369.43 637.178V588.107M1256.49 637.178H1143.55M1256.49 637.178V588.107M1143.55 637.178H1031.5M1143.55 637.178V588.107M1481.48 588.107H1369.43M1369.43 588.107H1256.49M1369.43 588.107V539.035M1256.49 588.107H1143.55M1256.49 588.107V539.035M1143.55 588.107H1031.5M1143.55 588.107V539.035M1481.48 539.035H1369.43M1369.43 539.035H1256.49M1369.43 539.035L1369.43 489.964M1256.49 539.035H1143.55M1256.49 539.035V489.964M1143.55 539.035H1031.5M1143.55 539.035V489.964M1481.48 489.964H1369.43M1369.43 489.964H1256.49M1369.43 489.964V440.892M1256.49 489.964H1143.55M1256.49 489.964V440.892M1143.55 489.964H1031.5M1143.55 489.964V440.892M1481.48 440.892H1369.43M1369.43 440.892H1256.49M1369.43 440.892V391.821M1256.49 440.892H1143.55M1256.49 440.892V391.821M1143.55 440.892H1031.5M1143.55 440.892V391.821M1481.48 391.821H1369.43M1369.43 391.821H1256.49M1369.43 391.821V342.749M1256.49 391.821H1143.55M1256.49 391.821V342.749M1143.55 391.821H1031.5M1143.55 391.821V342.749M1481.48 342.749H1369.43M1369.43 342.749H1256.49M1369.43 342.749V293.678M1256.49 342.749H1143.55M1256.49 342.749V293.678M1143.55 342.749H1031.5M1143.55 342.749L1143.55 293.678M1481.48 293.678H1369.43M1369.43 293.678H1256.49M1369.43 293.678V244.606M1256.49 293.678H1143.55M1256.49 293.678V244.606M1143.55 293.678H1031.5M1143.55 293.678V244.606M1481.48 244.606H1369.43M1369.43 244.606H1256.49M1369.43 244.606V195.534M1256.49 244.606H1143.55M1256.49 244.606V195.534M1143.55 244.606H1031.5M1143.55 244.606V195.534M1481.48 195.534H1369.43M1369.43 195.534H1256.49M1369.43 195.534L1369.43 146.463M1256.49 195.534H1143.55M1256.49 195.534V146.463M1143.55 195.534H1031.5M1143.55 195.534V146.463M1481.48 146.463H1369.43M1369.43 146.463H1256.49M1369.43 146.463V97.3914M1256.49 146.463H1143.55M1256.49 146.463V97.3914M1143.55 146.463H1031.5M1143.55 146.463V97.3914M1481.48 97.3914H1369.43M1369.43 97.3914H1256.49M1369.43 97.3914V48.3198M1256.49 97.3914H1143.55M1256.49 97.3914V48.3198M1143.55 97.3914H1031.5M1143.55 97.3914V48.3198M1481.48 48.3198H1369.43M1369.43 48.3198H1256.49M1369.43 48.3198V-0.751708M1256.49 48.3198H1143.55M1256.49 48.3198V-0.751708M1143.55 48.3198H1031.5M1143.55 48.3198V-0.751708M1481.48 -0.751708H1369.43M1369.43 -0.751708H1256.49M1369.43 -0.751708V-49.8232M1256.49 -0.751708H1143.55M1256.49 -0.751708L1256.49 -49.8232M1143.55 -0.751708H1031.5M1143.55 -0.751708V-49.8232M1481.48 -49.8232H1369.43M1369.43 -49.8232L1256.49 -49.8232M1369.43 -49.8232V-73.9756M1256.49 -49.8232H1143.55M1256.49 -49.8232V-73.9756M1143.55 -49.8232H1031.5M1143.55 -49.8232V-73.9756M1482.36 1030.13L1482.36 -73.9756M1030.62 1030.13L1030.62 -73.9756M1143.52 980.679H1031.46M1031.46 980.679H918.528M1031.46 980.679V1030.13M1031.46 980.679V931.607M918.528 980.679H805.591M918.528 980.679V1030.13M918.528 980.679V931.607M805.591 980.679H693.537M805.591 980.679L805.591 1030.13M805.591 980.679V931.607M1143.52 931.607H1031.46M1031.46 931.607H918.528M1031.46 931.607V882.536M918.528 931.607H805.591M918.528 931.607V882.536M805.591 931.607H693.537M805.591 931.607V882.536M1143.52 882.536H1031.46M1031.46 882.536H918.528M1031.46 882.536V833.464M918.528 882.536H805.591M918.528 882.536V833.464M805.591 882.536H693.537M805.591 882.536V833.464M1143.52 833.464H1031.46M1031.46 833.464H918.528M1031.46 833.464V784.393M918.528 833.464H805.591M918.528 833.464V784.393M805.591 833.464H693.537M805.591 833.464V784.393M1143.52 784.393H1031.46M1031.46 784.393H918.528M1031.46 784.393V735.321M918.528 784.393H805.591M918.528 784.393V735.321M805.591 784.393H693.537M805.591 784.393V735.321M1143.52 735.321H1031.46M1031.46 735.321H918.528M1031.46 735.321V686.25M918.528 735.321H805.591M918.528 735.321V686.25M805.591 735.321H693.537M805.591 735.321V686.25M1143.52 686.25H1031.46M1031.46 686.25H918.528M1031.46 686.25V637.178M918.528 686.25H805.591M918.528 686.25V637.178M805.591 686.25H693.537M805.591 686.25V637.178M1143.52 637.178H1031.46M1031.46 637.178H918.528M1031.46 637.178V588.107M918.528 637.178H805.591M918.528 637.178V588.107M805.591 637.178H693.537M805.591 637.178V588.107M1143.52 588.107H1031.46M1031.46 588.107H918.528M1031.46 588.107V539.035M918.528 588.107H805.591M918.528 588.107V539.035M805.591 588.107H693.537M805.591 588.107V539.035M1143.52 539.035H1031.46M1031.46 539.035H918.528M1031.46 539.035V489.964M918.528 539.035H805.591M918.528 539.035V489.964M805.591 539.035H693.537M805.591 539.035V489.964M1143.52 489.964H1031.46M1031.46 489.964H918.528M1031.46 489.964V440.892M918.528 489.964H805.591M918.528 489.964V440.892M805.591 489.964H693.537M805.591 489.964V440.892M1143.52 440.892H1031.46M1031.46 440.892H918.528M1031.46 440.892V391.821M918.528 440.892H805.591M918.528 440.892V391.821M805.591 440.892H693.537M805.591 440.892V391.821M1143.52 391.821H1031.46M1031.46 391.821H918.528M1031.46 391.821V342.749M918.528 391.821H805.591M918.528 391.821V342.749M805.591 391.821H693.537M805.591 391.821V342.749M1143.52 342.749H1031.46M1031.46 342.749H918.528M1031.46 342.749L1031.46 293.678M918.528 342.749H805.591M918.528 342.749L918.528 293.678M805.591 342.749H693.537M805.591 342.749V293.678M1143.52 293.678H1031.46M1031.46 293.678H918.528M1031.46 293.678V244.606M918.528 293.678H805.591M918.528 293.678V244.606M805.591 293.678H693.537M805.591 293.678V244.606M1143.52 244.606H1031.46M1031.46 244.606H918.528M1031.46 244.606V195.534M918.528 244.606H805.591M918.528 244.606V195.534M805.591 244.606H693.537M805.591 244.606V195.534M1143.52 195.534H1031.46M1031.46 195.534H918.528M1031.46 195.534V146.463M918.528 195.534H805.591M918.528 195.534V146.463M805.591 195.534H693.537M805.591 195.534V146.463M1143.52 146.463H1031.46M1031.46 146.463H918.528M1031.46 146.463V97.3914M918.528 146.463H805.591M918.528 146.463V97.3914M805.591 146.463H693.537M805.591 146.463V97.3914M1143.52 97.3914H1031.46M1031.46 97.3914H918.528M1031.46 97.3914V48.3198M918.528 97.3914H805.591M918.528 97.3914V48.3198M805.591 97.3914H693.537M805.591 97.3914V48.3198M1143.52 48.3198H1031.46M1031.46 48.3198H918.528M1031.46 48.3198V-0.751708M918.528 48.3198H805.591M918.528 48.3198V-0.751708M805.591 48.3198H693.537M805.591 48.3198V-0.751708M1143.52 -0.751708H1031.46M1031.46 -0.751708H918.528M1031.46 -0.751708V-49.8232M918.528 -0.751708H805.591M918.528 -0.751708V-49.8232M805.591 -0.751708H693.537M805.591 -0.751708V-49.8232M1143.52 -49.8232H1031.46M1031.46 -49.8232L918.528 -49.8232M1031.46 -49.8232V-73.9756M918.528 -49.8232H805.591M918.528 -49.8232V-73.9756M805.591 -49.8232H693.537M805.591 -49.8232V-73.9756M1144.4 1030.13L1144.4 -73.9756M692.655 1030.13V-73.9756" stroke="url(#paint1_linear_736_111)" stroke-width="0.694444"/>
</g>
<defs>
<linearGradient id="paint0_linear_736_111" x1="1" y1="478.081" x2="450.031" y2="478.081" gradientUnits="userSpaceOnUse">
<stop stop-color="#F7CBD9"/>
<stop offset="1" stop-color="#F7CBD9" stop-opacity="0"/>
</linearGradient>
<linearGradient id="paint1_linear_736_111" x1="1482.36" y1="478.081" x2="1022.43" y2="478.081" gradientUnits="userSpaceOnUse">
<stop stop-color="#F7CBD9"/>
<stop offset="1" stop-color="#F7CBD9" stop-opacity="0"/>
</linearGradient>
</defs>
</svg>
