<svg width="2267" height="1720" viewBox="0 0 2267 1720" fill="none" xmlns="http://www.w3.org/2000/svg">
<path d="M876.452 51.4715C889.073 26.9105 919.216 17.2318 943.777 29.8535L2221.76 686.595C2246.32 699.217 2256 729.359 2243.38 753.92L1769.8 1675.48C1757.18 1700.04 1727.24 1709.82 1702.68 1697.2C1588.81 1638.72 1279.62 1479.89 1063.96 1368.96C848.803 1258.29 538.474 1098.88 424.318 1040.24C399.751 1027.63 390.259 997.577 402.882 973.011L876.452 51.4715Z" fill="#FBF3EA"/>
<path d="M496.452 44.4715C509.073 19.9105 539.216 10.2318 563.777 22.8535L1841.76 679.595C1866.32 692.217 1876 722.359 1863.38 746.92L1389.8 1668.48C1377.18 1693.04 1347.24 1702.82 1322.68 1690.2C1208.81 1631.72 899.621 1472.89 683.961 1361.96C468.803 1251.29 158.474 1091.88 44.3183 1033.24C19.7506 1020.63 10.2585 990.577 22.8823 966.011L496.452 44.4715Z" fill="#FBF3EA"/>
</svg>
