<svg width="20" height="20" viewBox="0 0 20 20" fill="none" xmlns="http://www.w3.org/2000/svg">
<g clip-path="url(#clip0_737_182)">
<path d="M18.3337 8.33333V16.6667C18.3337 16.8877 18.2459 17.0996 18.0896 17.2559C17.9333 17.4122 17.7213 17.5 17.5003 17.5H2.50033C2.27931 17.5 2.06735 17.4122 1.91107 17.2559C1.75479 17.0996 1.66699 16.8877 1.66699 16.6667V8.33333H18.3337ZM18.3337 6.66667H1.66699V3.33333C1.66699 3.11232 1.75479 2.90036 1.91107 2.74408C2.06735 2.5878 2.27931 2.5 2.50033 2.5H17.5003C17.7213 2.5 17.9333 2.5878 18.0896 2.74408C18.2459 2.90036 18.3337 3.11232 18.3337 3.33333V6.66667ZM12.5003 13.3333V15H15.8337V13.3333H12.5003Z" fill="url(#paint0_linear_737_182)"/>
</g>
<defs>
<linearGradient id="paint0_linear_737_182" x1="1.66699" y1="3.5443" x2="19.2909" y2="8.00896" gradientUnits="userSpaceOnUse">
<stop stop-color="#F36929"/>
<stop offset="1" stop-color="#FBB040"/>
</linearGradient>
<clipPath id="clip0_737_182">
<rect width="20" height="20" fill="white"/>
</clipPath>
</defs>
</svg>
