<svg width="45" height="45" viewBox="0 0 45 45" fill="none" xmlns="http://www.w3.org/2000/svg">
<circle cx="22.5" cy="22.5" r="22" stroke="#008076"/>
<g clip-path="url(#clip0_25_497)">
<path d="M13.8751 13.875H31.1251C31.3792 13.875 31.623 13.976 31.8027 14.1557C31.9824 14.3354 32.0834 14.5792 32.0834 14.8333V30.1667C32.0834 30.4208 31.9824 30.6646 31.8027 30.8443C31.623 31.024 31.3792 31.125 31.1251 31.125H13.8751C13.6209 31.125 13.3772 31.024 13.1974 30.8443C13.0177 30.6646 12.9167 30.4208 12.9167 30.1667V14.8333C12.9167 14.5792 13.0177 14.3354 13.1974 14.1557C13.3772 13.976 13.6209 13.875 13.8751 13.875ZM22.5576 22.1962L16.4127 16.9781L15.1717 18.4386L22.57 24.7205L29.8352 18.4338L28.5817 16.9838L22.5585 22.1962H22.5576Z" fill="#008076"/>
</g>
<defs>
<clipPath id="clip0_25_497">
<rect width="23" height="23" fill="white" transform="translate(11 11)"/>
</clipPath>
</defs>
</svg>
