<svg width="40" height="40" viewBox="0 0 40 40" fill="none" xmlns="http://www.w3.org/2000/svg">
<rect width="40" height="40" rx="2" fill="white"/>
<path d="M30.56 20.25C30.56 19.47 30.49 18.72 30.36 18H20V22.26H25.92C25.66 23.63 24.88 24.79 23.71 25.57V28.34H27.28C29.36 26.42 30.56 23.6 30.56 20.25Z" fill="#4285F4"/>
<path d="M19.9997 31.0001C22.9697 31.0001 25.4597 30.0201 27.2797 28.3401L23.7097 25.5701C22.7297 26.2301 21.4797 26.6301 19.9997 26.6301C17.1397 26.6301 14.7097 24.7001 13.8397 22.1001H10.1797V24.9401C11.9897 28.5301 15.6997 31.0001 19.9997 31.0001Z" fill="#34A853"/>
<path d="M13.84 22.0899C13.62 21.4299 13.49 20.7299 13.49 19.9999C13.49 19.2699 13.62 18.5699 13.84 17.9099V15.0699H10.18C9.43 16.5499 9 18.2199 9 19.9999C9 21.7799 9.43 23.4499 10.18 24.9299L13.03 22.7099L13.84 22.0899Z" fill="#FBBC05"/>
<path d="M19.9997 13.38C21.6197 13.38 23.0597 13.94 24.2097 15.02L27.3597 11.87C25.4497 10.09 22.9697 9 19.9997 9C15.6997 9 11.9897 11.47 10.1797 15.07L13.8397 17.91C14.7097 15.31 17.1397 13.38 19.9997 13.38Z" fill="#EA4335"/>
</svg>
