<svg width="233" height="229" viewBox="0 0 233 229" fill="none" xmlns="http://www.w3.org/2000/svg">
<g filter="url(#filter0_d_736_123)">
<ellipse cx="116.649" cy="86.6174" rx="56.127" ry="54.2561" fill="white"/>
</g>
<g clip-path="url(#clip0_736_123)">
<path d="M112.632 108.86H120.817C121.674 108.858 122.515 108.632 123.258 108.205C124.001 107.778 124.619 107.164 125.051 106.424C125.484 105.684 125.715 104.844 125.723 103.987C125.731 103.131 125.515 102.287 125.096 101.539C125.696 101.156 126.205 100.647 126.588 100.047C126.972 99.448 127.22 98.7724 127.317 98.0674C127.413 97.3624 127.355 96.6448 127.147 95.9644C126.939 95.284 126.585 94.6569 126.111 94.1266C126.7 93.4715 127.102 92.6693 127.273 91.8048C127.444 90.9404 127.379 90.0457 127.083 89.2155H138.824C141.532 89.2155 143.735 87.012 143.735 84.3043C143.735 81.5967 141.532 79.3932 138.824 79.3932H118.633L123.433 70.3895C124.019 69.3504 124.206 68.1337 123.962 66.9663C123.717 65.7988 123.056 64.76 122.103 64.0435C121.149 63.3269 119.968 62.9815 118.778 63.0714C117.589 63.1613 116.472 63.6805 115.637 64.5322L115.601 64.5715L104.446 76.8067V74.4821C104.446 74.048 104.274 73.6316 103.967 73.3246C103.66 73.0176 103.244 72.8451 102.809 72.8451H92.9872C92.5531 72.8451 92.1367 73.0176 91.8297 73.3246C91.5227 73.6316 91.3502 74.048 91.3502 74.4821V107.223C91.3502 107.657 91.5227 108.073 91.8297 108.38C92.1367 108.687 92.5531 108.86 92.9872 108.86H102.809C103.244 108.86 103.66 108.687 103.967 108.38C104.274 108.073 104.446 107.657 104.446 107.223V104.96L111.898 108.686C112.126 108.801 112.377 108.86 112.632 108.86ZM99.5354 105.586C99.1012 105.586 98.6848 105.413 98.3778 105.106C98.0708 104.799 97.8983 104.383 97.8983 103.949C97.8983 103.515 98.0708 103.098 98.3778 102.791C98.6848 102.484 99.1012 102.312 99.5354 102.312C99.9695 102.312 100.386 102.484 100.693 102.791C101 103.098 101.172 103.515 101.172 103.949C101.172 104.383 101 104.799 100.693 105.106C100.386 105.413 99.9695 105.586 99.5354 105.586ZM113.018 105.586L104.446 101.3V81.6654L118.011 66.7881C118.293 66.499 118.672 66.3244 119.075 66.2977C119.478 66.271 119.876 66.3942 120.194 66.6436C120.511 66.893 120.726 67.2509 120.795 67.6486C120.865 68.0464 120.785 68.4558 120.571 68.7983L114.462 80.2576C114.328 80.5068 114.261 80.7865 114.268 81.0693C114.275 81.3521 114.355 81.6283 114.5 81.8708C114.646 82.1134 114.852 82.314 115.098 82.4531C115.345 82.5921 115.623 82.6648 115.906 82.664H138.824C139.258 82.664 139.675 82.8365 139.982 83.1435C140.289 83.4505 140.461 83.8669 140.461 84.3011C140.461 84.7352 140.289 85.1516 139.982 85.4586C139.675 85.7656 139.258 85.9381 138.824 85.9381H122.454C122.02 85.9381 121.603 86.1106 121.296 86.4176C120.989 86.7246 120.817 87.141 120.817 87.5751C120.817 88.0093 120.989 88.4257 121.296 88.7327C121.603 89.0397 122.02 89.2122 122.454 89.2122C122.888 89.2122 123.304 89.3847 123.611 89.6917C123.918 89.9987 124.091 90.415 124.091 90.8492C124.091 91.2834 123.918 91.6998 123.611 92.0068C123.304 92.3138 122.888 92.4863 122.454 92.4863C122.02 92.4863 121.603 92.6587 121.296 92.9657C120.989 93.2727 120.817 93.6891 120.817 94.1233C120.817 94.5575 120.989 94.9738 121.296 95.2808C121.603 95.5879 122.02 95.7603 122.454 95.7603C122.888 95.7603 123.304 95.9328 123.611 96.2398C123.918 96.5468 124.091 96.9632 124.091 97.3974C124.091 97.8315 123.918 98.2479 123.611 98.5549C123.304 98.8619 122.888 99.0344 122.454 99.0344H120.817C120.383 99.0344 119.966 99.2069 119.659 99.5139C119.352 99.8209 119.18 100.237 119.18 100.671C119.18 101.106 119.352 101.522 119.659 101.829C119.966 102.136 120.383 102.308 120.817 102.308C121.251 102.308 121.667 102.481 121.974 102.788C122.281 103.095 122.454 103.511 122.454 103.946C122.454 104.38 122.281 104.796 121.974 105.103C121.667 105.41 121.251 105.583 120.817 105.583H113.018V105.586Z" fill="url(#paint0_linear_736_123)"/>
</g>
<defs>
<filter id="filter0_d_736_123" x="0.522461" y="0.361328" width="232.254" height="228.512" filterUnits="userSpaceOnUse" color-interpolation-filters="sRGB">
<feFlood flood-opacity="0" result="BackgroundImageFix"/>
<feColorMatrix in="SourceAlpha" type="matrix" values="0 0 0 0 0 0 0 0 0 0 0 0 0 0 0 0 0 0 127 0" result="hardAlpha"/>
<feOffset dy="28"/>
<feGaussianBlur stdDeviation="30"/>
<feColorMatrix type="matrix" values="0 0 0 0 0.595833 0 0 0 0 0.595833 0 0 0 0 0.595833 0 0 0 0.15 0"/>
<feBlend mode="normal" in2="BackgroundImageFix" result="effect1_dropShadow_736_123"/>
<feBlend mode="normal" in="SourceGraphic" in2="effect1_dropShadow_736_123" result="shape"/>
</filter>
<linearGradient id="paint0_linear_736_123" x1="143.735" y1="66.2462" x2="88.5397" y2="80.6392" gradientUnits="userSpaceOnUse">
<stop stop-color="#F36929"/>
<stop offset="1" stop-color="#FBB040"/>
</linearGradient>
<clipPath id="clip0_736_123">
<rect width="52.3852" height="52.3852" fill="white" transform="matrix(-1 0 0 1 143.735 59.7488)"/>
</clipPath>
</defs>
</svg>
