<svg width="25" height="25" viewBox="0 0 25 25" fill="none" xmlns="http://www.w3.org/2000/svg">
<circle cx="12.5" cy="12.5" r="12" stroke="white"/>
<g clip-path="url(#clip0_25_527)">
<path d="M12.5 6.25C14.1981 6.25 14.41 6.25625 15.0763 6.2875C15.7419 6.31875 16.195 6.42313 16.5938 6.57813C17.0063 6.73688 17.3538 6.95188 17.7013 7.29875C18.0191 7.61119 18.265 7.98912 18.4219 8.40625C18.5763 8.80438 18.6813 9.25813 18.7125 9.92375C18.7419 10.59 18.75 10.8019 18.75 12.5C18.75 14.1981 18.7438 14.41 18.7125 15.0763C18.6813 15.7419 18.5763 16.195 18.4219 16.5938C18.2654 17.0111 18.0195 17.3891 17.7013 17.7013C17.3887 18.019 17.0108 18.2648 16.5938 18.4219C16.1956 18.5763 15.7419 18.6813 15.0763 18.7125C14.41 18.7419 14.1981 18.75 12.5 18.75C10.8019 18.75 10.59 18.7438 9.92375 18.7125C9.25813 18.6813 8.805 18.5763 8.40625 18.4219C7.98895 18.2653 7.61095 18.0193 7.29875 17.7013C6.98088 17.3889 6.73496 17.0109 6.57813 16.5938C6.42313 16.1956 6.31875 15.7419 6.2875 15.0763C6.25812 14.41 6.25 14.1981 6.25 12.5C6.25 10.8019 6.25625 10.59 6.2875 9.92375C6.31875 9.2575 6.42313 8.805 6.57813 8.40625C6.73452 7.98886 6.9805 7.61083 7.29875 7.29875C7.61104 6.98077 7.98902 6.73483 8.40625 6.57813C8.805 6.42313 9.2575 6.31875 9.92375 6.2875C10.59 6.25812 10.8019 6.25 12.5 6.25ZM12.5 9.375C11.6712 9.375 10.8763 9.70424 10.2903 10.2903C9.70424 10.8763 9.375 11.6712 9.375 12.5C9.375 13.3288 9.70424 14.1237 10.2903 14.7097C10.8763 15.2958 11.6712 15.625 12.5 15.625C13.3288 15.625 14.1237 15.2958 14.7097 14.7097C15.2958 14.1237 15.625 13.3288 15.625 12.5C15.625 11.6712 15.2958 10.8763 14.7097 10.2903C14.1237 9.70424 13.3288 9.375 12.5 9.375ZM16.5625 9.21875C16.5625 9.01155 16.4802 8.81284 16.3337 8.66632C16.1872 8.51981 15.9885 8.4375 15.7813 8.4375C15.5741 8.4375 15.3753 8.51981 15.2288 8.66632C15.0823 8.81284 15 9.01155 15 9.21875C15 9.42595 15.0823 9.62466 15.2288 9.77118C15.3753 9.91769 15.5741 10 15.7813 10C15.9885 10 16.1872 9.91769 16.3337 9.77118C16.4802 9.62466 16.5625 9.42595 16.5625 9.21875ZM12.5 10.625C12.9973 10.625 13.4742 10.8225 13.8258 11.1742C14.1775 11.5258 14.375 12.0027 14.375 12.5C14.375 12.9973 14.1775 13.4742 13.8258 13.8258C13.4742 14.1775 12.9973 14.375 12.5 14.375C12.0027 14.375 11.5258 14.1775 11.1742 13.8258C10.8225 13.4742 10.625 12.9973 10.625 12.5C10.625 12.0027 10.8225 11.5258 11.1742 11.1742C11.5258 10.8225 12.0027 10.625 12.5 10.625Z" fill="white"/>
</g>
<defs>
<clipPath id="clip0_25_527">
<rect width="15" height="15" fill="white" transform="translate(5 5)"/>
</clipPath>
</defs>
</svg>
