<svg width="45" height="45" viewBox="0 0 45 45" fill="none" xmlns="http://www.w3.org/2000/svg">
<circle cx="22.5" cy="22.5" r="22" stroke="#008076"/>
<g clip-path="url(#clip0_25_490)">
<path d="M28.5988 27.6405L22.5 33.7393L16.4012 27.6405C15.195 26.4343 14.3735 24.8974 14.0407 23.2244C13.7079 21.5513 13.8787 19.8171 14.5316 18.2411C15.1844 16.6651 16.2898 15.318 17.7082 14.3703C19.1266 13.4226 20.7941 12.9167 22.5 12.9167C24.2059 12.9167 25.8734 13.4226 27.2918 14.3703C28.7102 15.318 29.8156 16.6651 30.4685 18.2411C31.1213 19.8171 31.2921 21.5513 30.9593 23.2244C30.6265 24.8974 29.8051 26.4343 28.5988 27.6405ZM22.5 23.4583C23.0083 23.4583 23.4958 23.2564 23.8553 22.897C24.2147 22.5375 24.4167 22.05 24.4167 21.5417C24.4167 21.0333 24.2147 20.5458 23.8553 20.1864C23.4958 19.8269 23.0083 19.625 22.5 19.625C21.9917 19.625 21.5042 19.8269 21.1447 20.1864C20.7853 20.5458 20.5833 21.0333 20.5833 21.5417C20.5833 22.05 20.7853 22.5375 21.1447 22.897C21.5042 23.2564 21.9917 23.4583 22.5 23.4583Z" fill="#008076"/>
</g>
<defs>
<clipPath id="clip0_25_490">
<rect width="23" height="23" fill="white" transform="translate(11 11)"/>
</clipPath>
</defs>
</svg>
