<svg width="40" height="40" viewBox="0 0 40 40" fill="none" xmlns="http://www.w3.org/2000/svg">
<path d="M20.0652 13.953C20.3296 13.953 20.5831 13.8479 20.77 13.661C20.957 13.4741 21.062 13.2206 21.062 12.9562C21.062 12.6919 20.957 12.4383 20.77 12.2514C20.5831 12.0645 20.3296 11.9595 20.0652 11.9595C18.4881 11.9595 16.9465 12.4271 15.6352 13.3033C14.3239 14.1795 13.3018 15.4249 12.6983 16.8819C12.0948 18.3389 11.9369 19.9422 12.2445 21.489C12.5522 23.0358 13.3116 24.4566 14.4268 25.5718C15.542 26.687 16.9628 27.4464 18.5096 27.7541C20.0564 28.0618 21.6597 27.9039 23.1167 27.3003C24.5738 26.6968 25.8191 25.6748 26.6953 24.3635C27.5715 23.0522 28.0392 21.5105 28.0392 19.9334C28.0392 19.669 27.9341 19.4155 27.7472 19.2286C27.5603 19.0417 27.3068 18.9367 27.0424 18.9367C26.7781 18.9367 26.5245 19.0417 26.3376 19.2286C26.1507 19.4155 26.0457 19.669 26.0457 19.9334C26.0457 21.1162 25.6949 22.2725 25.0378 23.2559C24.3806 24.2394 23.4466 25.006 22.3538 25.4586C21.2611 25.9112 20.0586 26.0297 18.8985 25.7989C17.7384 25.5682 16.6728 24.9986 15.8364 24.1622C15 23.3258 14.4305 22.2602 14.1997 21.1001C13.9689 19.94 14.0874 18.7376 14.54 17.6448C14.9927 16.552 15.7592 15.618 16.7427 14.9608C17.7262 14.3037 18.8824 13.953 20.0652 13.953Z" fill="#008076"/>
<path d="M39.083 14.0134C39.0013 13.7642 38.8248 13.5572 38.5917 13.4371C38.3585 13.3171 38.0875 13.2937 37.8372 13.372C37.5869 13.4503 37.3776 13.624 37.2544 13.8556C37.1313 14.0871 37.1043 14.3578 37.1792 14.6091C38.3857 18.4539 38.2678 22.5921 36.8445 26.362C35.4211 30.1318 32.7746 33.3154 29.3281 35.4034C25.8817 37.4914 21.8346 38.3632 17.8341 37.8794C13.8337 37.3955 10.1111 35.584 7.26188 32.7345C4.41264 29.8851 2.60138 26.1624 2.11784 22.1619C1.6343 18.1614 2.50642 14.1143 4.5947 10.6681C6.68298 7.22182 9.86674 4.57551 13.6367 3.15245C17.4066 1.7294 21.5449 1.61184 25.3896 2.81857C25.5153 2.86071 25.6481 2.87734 25.7803 2.86751C25.9125 2.85768 26.0414 2.82158 26.1595 2.76131C26.2776 2.70105 26.3824 2.61784 26.468 2.51655C26.5535 2.41526 26.6179 2.29793 26.6576 2.17143C26.6972 2.04492 26.7112 1.91178 26.6987 1.77981C26.6862 1.64783 26.6476 1.51966 26.585 1.40281C26.5224 1.28596 26.4371 1.18277 26.3341 1.09928C26.2311 1.0158 26.1126 0.953687 25.9853 0.916593C21.7155 -0.422579 17.1199 -0.291121 12.9336 1.28994C8.74737 2.871 5.21227 5.81032 2.89378 9.63775C0.575282 13.4652 -0.392649 17.9596 0.144805 22.4021C0.682258 26.8446 2.69404 30.9785 5.85837 34.1426C9.02271 37.3067 13.1568 39.3182 17.5993 39.8554C22.0418 40.3925 26.5362 39.4243 30.3634 37.1055C34.1907 34.7868 37.1298 31.2515 38.7105 27.0651C40.2913 22.8787 40.4225 18.2831 39.083 14.0134Z" fill="#008076"/>
<path d="M21.9633 7.11406C21.9657 6.84062 21.864 6.57649 21.6789 6.37517C21.4939 6.17385 21.2392 6.05038 20.9666 6.02976C20.6687 6.00345 20.3709 5.97913 20.0652 5.97913C17.3053 5.97913 14.6074 6.79754 12.3126 8.33086C10.0178 9.86418 8.22923 12.0436 7.17306 14.5934C6.11689 17.1432 5.84054 19.949 6.37898 22.6558C6.91741 25.3627 8.24643 27.8492 10.198 29.8007C12.1495 31.7523 14.636 33.0813 17.3428 33.6197C20.0497 34.1581 22.8555 33.8818 25.4053 32.8256C27.9551 31.7695 30.1345 29.9809 31.6678 27.6861C33.2012 25.3913 34.0196 22.6934 34.0196 19.9335C34.0196 19.573 33.9974 19.2128 33.9534 18.855C33.941 18.7164 33.8999 18.5818 33.8327 18.4599C33.7656 18.3381 33.6738 18.2315 33.5633 18.1469C33.4528 18.0624 33.3259 18.0017 33.1907 17.9688C33.0554 17.9359 32.9149 17.9314 32.7778 17.9558C32.6408 17.9801 32.5103 18.0326 32.3947 18.11C32.279 18.1874 32.1807 18.288 32.106 18.4054C32.0313 18.5228 31.9818 18.6545 31.9607 18.792C31.9396 18.9296 31.9473 19.07 31.9833 19.2044C32.0047 19.4458 32.0261 19.6862 32.0261 19.9335C32.0261 22.2991 31.3246 24.6116 30.0103 26.5786C28.696 28.5456 26.828 30.0786 24.6424 30.9839C22.4569 31.8892 20.0519 32.1261 17.7318 31.6645C15.4116 31.203 13.2803 30.0639 11.6076 28.3911C9.93483 26.7183 8.79566 24.5871 8.33415 22.2669C7.87264 19.9468 8.1095 17.5418 9.01479 15.3563C9.92008 13.1707 11.4531 11.3027 13.4201 9.98838C15.3871 8.6741 17.6996 7.97261 20.0652 7.97261C20.3124 7.97261 20.5519 7.99498 20.7933 8.01542L20.9802 8.03196C21.1053 8.03741 21.2302 8.01787 21.3477 7.97449C21.4651 7.93111 21.5728 7.86475 21.6643 7.77929C21.7558 7.69383 21.8294 7.59099 21.8808 7.47677C21.9321 7.36255 21.9602 7.23925 21.9633 7.11406Z" fill="#008076"/>
<path d="M26.0457 8.96925V12.5435L19.3605 19.2286C19.266 19.3208 19.1908 19.4307 19.1391 19.5522C19.0875 19.6736 19.0604 19.8041 19.0596 19.936C19.0588 20.068 19.0841 20.1988 19.1342 20.3208C19.1844 20.4429 19.2582 20.5538 19.3515 20.6471C19.4448 20.7404 19.5557 20.8143 19.6778 20.8644C19.7999 20.9145 19.9307 20.9399 20.0626 20.939C20.1946 20.9382 20.3251 20.9112 20.4465 20.8595C20.5679 20.8079 20.6779 20.7326 20.77 20.6381L27.4551 13.953H31.0294C31.1603 13.953 31.2899 13.9272 31.4108 13.8771C31.5317 13.827 31.6416 13.7536 31.7341 13.661L37.7146 7.68052C37.8539 7.54112 37.9489 7.36353 37.9873 7.1702C38.0258 6.97686 38.006 6.77647 37.9306 6.59435C37.8552 6.41224 37.7274 6.25658 37.5635 6.14705C37.3996 6.03753 37.2069 5.97906 37.0098 5.97903H34.0196V2.98881C34.0196 2.79169 33.9611 2.59901 33.8516 2.43511C33.7421 2.27122 33.5864 2.14349 33.4043 2.06805C33.2222 1.99262 33.0218 1.97288 32.8284 2.01133C32.6351 2.04978 32.4575 2.1447 32.3181 2.28407L26.3377 8.26451C26.2451 8.35703 26.1716 8.4669 26.1215 8.58782C26.0714 8.70875 26.0457 8.83836 26.0457 8.96925ZM28.0392 9.38195L32.0261 5.39499V6.97577C32.026 7.10669 32.0518 7.23634 32.1018 7.3573C32.1519 7.47827 32.2253 7.58818 32.3179 7.68075C32.4105 7.77332 32.5204 7.84674 32.6413 7.8968C32.7623 7.94687 32.8919 7.97259 33.0229 7.97251H34.6036L30.6167 11.9595H28.0392V9.38195Z" fill="#008076"/>
</svg>
