<svg width="20" height="20" viewBox="0 0 20 20" fill="none" xmlns="http://www.w3.org/2000/svg">
<g clip-path="url(#clip0_737_186)">
<path d="M16.7226 7.06502C17.1326 7.79835 17.1859 8.74335 16.9726 9.83752C16.3559 13.0092 14.2426 14.1042 11.5443 14.1042H11.1276C10.9679 14.1044 10.8135 14.1616 10.6923 14.2655C10.571 14.3694 10.4907 14.5131 10.4659 14.6709L10.4326 14.8542L9.90759 18.1817L9.88093 18.3234C9.85611 18.481 9.77583 18.6247 9.65452 18.7284C9.53322 18.8321 9.37887 18.8891 9.21926 18.8892H6.43343C6.37529 18.8892 6.31786 18.8766 6.26506 18.8522C6.21227 18.8279 6.16537 18.7924 6.1276 18.7482C6.08982 18.704 6.06207 18.6522 6.04625 18.5963C6.03042 18.5403 6.0269 18.4816 6.03593 18.4242L6.18176 17.5H7.44676L8.23843 12.4834H9.39259C13.2909 12.4834 15.8509 10.6475 16.7226 7.06502V7.06502ZM14.2559 2.82335C14.8909 3.54669 15.0751 4.33169 14.8826 5.56085C14.8668 5.66335 14.8493 5.76085 14.8309 5.86085C14.2184 9.00502 12.2568 10.3992 9.03426 10.3992H7.46426C6.93926 10.3992 6.48593 10.7442 6.33593 11.2342L6.32426 11.2325L5.54926 16.1442H2.60093C2.59473 16.1442 2.5886 16.1428 2.58299 16.1401C2.57738 16.1375 2.57241 16.1337 2.56844 16.1289C2.56447 16.1241 2.56159 16.1186 2.56001 16.1126C2.55842 16.1066 2.55817 16.1003 2.55926 16.0942L4.72426 2.33585C4.75345 2.14947 4.84824 1.97964 4.99155 1.85696C5.13486 1.73427 5.31728 1.6668 5.50593 1.66669H10.4859C12.3051 1.66669 13.5826 2.05752 14.2551 2.82335H14.2559Z" fill="url(#paint0_linear_737_186)"/>
</g>
<defs>
<linearGradient id="paint0_linear_737_186" x1="2.55859" y1="2.86572" x2="18.3326" y2="5.9013" gradientUnits="userSpaceOnUse">
<stop stop-color="#F36929"/>
<stop offset="1" stop-color="#FBB040"/>
</linearGradient>
<clipPath id="clip0_737_186">
<rect width="20" height="20" fill="white"/>
</clipPath>
</defs>
</svg>
