<svg width="45" height="45" viewBox="0 0 45 45" fill="none" xmlns="http://www.w3.org/2000/svg">
<circle cx="22.5" cy="22.5" r="22" stroke="#008076"/>
<g clip-path="url(#clip0_25_483)">
<path d="M31.125 26.7358V30.1245C31.1251 30.3671 31.0332 30.6008 30.8678 30.7783C30.7024 30.9558 30.4758 31.0639 30.2337 31.0809C29.815 31.1097 29.4728 31.125 29.2083 31.125C20.7395 31.125 13.875 24.2605 13.875 15.7917C13.875 15.5272 13.8894 15.185 13.9191 14.7663C13.9361 14.5242 14.0442 14.2976 14.2217 14.1322C14.3992 13.9668 14.6329 13.8749 14.8755 13.875H18.2642C18.383 13.8749 18.4977 13.9189 18.5859 13.9986C18.6741 14.0783 18.7295 14.188 18.7414 14.3063C18.7635 14.5267 18.7836 14.702 18.8028 14.8353C18.9932 16.1644 19.3835 17.4571 19.9604 18.6695C20.0515 18.8612 19.992 19.0903 19.8195 19.2129L17.7515 20.6907C19.0159 23.637 21.3639 25.985 24.3103 27.2495L25.7861 25.1853C25.8464 25.1009 25.9345 25.0404 26.0348 25.0143C26.1352 24.9882 26.2415 24.9982 26.3353 25.0425C27.5476 25.6183 28.8399 26.0076 30.1686 26.1972C30.3018 26.2164 30.4772 26.2375 30.6957 26.2586C30.8138 26.2707 30.9232 26.3262 31.0027 26.4144C31.0822 26.5026 31.1261 26.6171 31.126 26.7358H31.125Z" fill="#008076"/>
</g>
<defs>
<clipPath id="clip0_25_483">
<rect width="23" height="23" fill="white" transform="translate(11 11)"/>
</clipPath>
</defs>
</svg>
