<svg width="40" height="40" viewBox="0 0 40 40" fill="none" xmlns="http://www.w3.org/2000/svg">
<g clip-path="url(#clip0_25_226)">
<path d="M39.9999 5.56194C39.9999 3.82119 39.5037 2.44362 38.5253 1.46831C34.5977 -2.44469 24.2712 1.71612 15.0121 10.944C14.6757 11.2794 14.3682 11.6369 14.0725 12.0032C13.9754 11.9631 13.8638 11.9272 13.7353 11.8974C11.0687 11.2742 2.51032 12.7281 0.018882 22.6817C-0.045236 22.9368 0.0573195 23.2041 0.275194 23.3512C0.380819 23.4232 0.502889 23.4586 0.624945 23.4586C0.753694 23.4586 0.882507 23.419 0.991757 23.3396C4.37338 20.8866 7.08626 19.9 9.45444 20.2632C9.29101 20.5595 9.12513 20.8485 8.95382 21.1247C8.80057 21.3719 8.83782 21.6917 9.04351 21.8967L10.0242 22.8742L8.18844 24.7032C8.07063 24.8204 8.00469 24.9796 8.00469 25.1457C8.00469 25.3117 8.07063 25.471 8.18844 25.5882L14.3316 31.7112C14.4537 31.8327 14.6129 31.8937 14.7729 31.8937C14.9328 31.8937 15.0921 31.8327 15.2142 31.7112L17.0524 29.8789L18.0358 30.8592C18.1567 30.9794 18.316 31.0417 18.4771 31.0417C18.59 31.0417 18.7036 31.0111 18.8049 30.9489C19.0632 30.7896 19.3313 30.6348 19.6072 30.4826C20.014 32.8625 19.0286 35.5926 16.5362 39.0061C16.3812 39.2186 16.3757 39.5054 16.5221 39.7233C16.6399 39.8991 16.8359 39.9998 17.0409 39.9998C17.091 39.9998 17.1416 39.9937 17.1917 39.9815C27.1545 37.5041 28.6266 28.9756 28.0126 26.3157C27.9751 26.1534 27.9259 26.0256 27.8727 25.9122C28.2699 25.5984 28.6569 25.2705 29.0185 24.9101C35.6896 18.2615 39.9999 10.6663 39.9999 5.56194ZM10.0359 19.0928C7.59757 18.5789 4.91813 19.2936 1.73638 21.3194C3.30132 16.9767 6.15169 14.9253 8.38801 13.9591C10.0646 13.2352 11.5905 13.0326 12.5671 13.0326C12.8289 13.0326 13.0504 13.0472 13.2256 13.0699L10.0359 19.0928ZM14.7729 30.3861L9.51532 25.1457L10.9094 23.7571L15.4516 28.2836L16.1669 28.9964L14.7729 30.3861ZM25.9582 31.6081C24.9914 33.8474 22.9321 36.7008 18.5601 38.2652C20.5889 35.0968 21.3061 32.4284 20.7916 29.9967L26.8377 26.8156C26.9463 27.6371 26.867 29.5024 25.9582 31.6081ZM21.6808 28.0406C20.5816 28.5697 19.5348 29.0727 18.5741 29.6305L10.2728 21.3572C10.7211 20.5896 11.1355 19.7559 11.5553 18.8947L14.0933 14.1028C14.6244 13.2806 15.2129 12.5086 15.8947 11.829C24.3652 3.38662 34.3231 -0.952377 37.6428 2.35331C38.3776 3.08575 38.7499 4.16544 38.7499 5.56194C38.7499 10.2775 34.4842 17.6976 28.1359 24.0251C26.3678 25.7871 23.9849 26.9327 21.6808 28.0406Z" fill="#EC9EC0"/>
<path d="M26.7029 8.03339C25.9906 8.74202 25.5981 9.68502 25.5981 10.6884C25.5981 11.6925 25.9906 12.6355 26.7029 13.3441C27.4371 14.0746 28.4015 14.4403 29.3658 14.4403C30.3302 14.4403 31.2946 14.0746 32.0282 13.3441C32.7405 12.6355 33.1323 11.6925 33.1323 10.6884C33.1323 9.68502 32.7405 8.74202 32.0282 8.03339C30.561 6.5722 28.1714 6.5722 26.7029 8.03339ZM31.1469 12.4578C30.1642 13.4356 28.5669 13.4356 27.5843 12.4578C27.11 11.9854 26.8481 11.3573 26.8481 10.6884C26.8481 10.0201 27.11 9.39202 27.5843 8.91958C28.0756 8.4307 28.7207 8.18658 29.3658 8.18658C30.011 8.18658 30.6555 8.4307 31.1469 8.91958C31.6211 9.39202 31.8823 10.0201 31.8823 10.6884C31.8823 11.3573 31.6211 11.9854 31.1469 12.4578Z" fill="#EC9EC0"/>
<path d="M10.2905 29.467C10.047 29.2223 9.6515 29.2223 9.40675 29.4658L3.15982 35.692C2.91563 35.9355 2.91444 36.331 3.15857 36.5758C3.28063 36.6985 3.44057 36.7595 3.60107 36.7595C3.76038 36.7595 3.92032 36.6985 4.04238 36.577L10.2893 30.3508C10.5334 30.1073 10.5347 29.7118 10.2905 29.467Z" fill="#EC9EC0"/>
<path d="M3.57791 32.4834C3.73723 32.4834 3.8971 32.4223 4.01923 32.3009L8.13298 28.2006C8.3771 27.957 8.37773 27.5615 8.13416 27.3168C7.89066 27.072 7.49516 27.0714 7.25041 27.3155L3.1366 31.4159C2.89248 31.6594 2.89185 32.055 3.13541 32.2997C3.25748 32.4223 3.41741 32.4834 3.57791 32.4834Z" fill="#EC9EC0"/>
<path d="M11.5636 31.6148L7.44983 35.7152C7.20571 35.9587 7.20508 36.3543 7.44865 36.599C7.57071 36.7216 7.73058 36.7827 7.89115 36.7827C8.0504 36.7827 8.21034 36.7216 8.3324 36.6002L12.4462 32.4999C12.6903 32.2563 12.691 31.8608 12.4474 31.6161C12.2039 31.3713 11.8083 31.3707 11.5636 31.6148Z" fill="#EC9EC0"/>
</g>
<defs>
<clipPath id="clip0_25_226">
<rect width="40" height="40" fill="white"/>
</clipPath>
</defs>
</svg>
