<svg width="89" height="16" viewBox="0 0 89 16" fill="none" xmlns="http://www.w3.org/2000/svg">
<path d="M8.41128 12.8248L3.21238 16L4.62576 10.0741L0 6.11166L6.07186 5.62521L8.41128 0L10.7507 5.62521L16.8234 6.11166L12.1968 10.0741L13.6102 16L8.41128 12.8248Z" fill="#F6BB00"/>
<path d="M26.2348 12.8248L21.0359 16L22.4492 10.0741L17.8235 6.11166L23.8953 5.62521L26.2348 0L28.5742 5.62521L34.6469 6.11166L30.0203 10.0741L31.4337 16L26.2348 12.8248Z" fill="#F6BB00"/>
<path d="M44.0583 12.8248L38.8594 16L40.2727 10.0741L35.647 6.11166L41.7188 5.62521L44.0583 0L46.3977 5.62521L52.4704 6.11166L47.8438 10.0741L49.2571 16L44.0583 12.8248Z" fill="#F6BB00"/>
<path d="M61.8815 12.8248L56.6826 16L58.096 10.0741L53.4702 6.11166L59.5421 5.62521L61.8815 0L64.2209 5.62521L70.2937 6.11166L65.667 10.0741L67.0804 16L61.8815 12.8248Z" fill="#F6BB00"/>
<path d="M79.705 12.8248L74.5061 16L75.9195 10.0741L71.2937 6.11166L77.3656 5.62521L79.705 0L82.0444 5.62521L88.1171 6.11166L83.4905 10.0741L84.9039 16L79.705 12.8248Z" fill="#F6BB00"/>
</svg>
