<svg width="20" height="20" viewBox="0 0 20 20" fill="none" xmlns="http://www.w3.org/2000/svg">
<g clip-path="url(#clip0_737_178)">
<path d="M2.5 5.83332L9.5375 1.14165C9.67444 1.05028 9.83538 1.00153 10 1.00153C10.1646 1.00153 10.3256 1.05028 10.4625 1.14165L17.5 5.83332V17.5C17.5 17.721 17.4122 17.933 17.2559 18.0892C17.0996 18.2455 16.8877 18.3333 16.6667 18.3333H3.33333C3.11232 18.3333 2.90036 18.2455 2.74408 18.0892C2.5878 17.933 2.5 17.721 2.5 17.5V5.83332ZM10 9.16665C10.442 9.16665 10.866 8.99106 11.1785 8.6785C11.4911 8.36593 11.6667 7.94201 11.6667 7.49998C11.6667 7.05796 11.4911 6.63403 11.1785 6.32147C10.866 6.00891 10.442 5.83332 10 5.83332C9.55797 5.83332 9.13405 6.00891 8.82149 6.32147C8.50893 6.63403 8.33333 7.05796 8.33333 7.49998C8.33333 7.94201 8.50893 8.36593 8.82149 8.6785C9.13405 8.99106 9.55797 9.16665 10 9.16665ZM6.66667 13.3333V15H13.3333V13.3333H6.66667ZM6.66667 10.8333V12.5H13.3333V10.8333H6.66667Z" fill="url(#paint0_linear_737_178)"/>
</g>
<defs>
<linearGradient id="paint0_linear_737_178" x1="2.5" y1="2.20817" x2="18.7469" y2="5.41404" gradientUnits="userSpaceOnUse">
<stop stop-color="#F36929"/>
<stop offset="1" stop-color="#FBB040"/>
</linearGradient>
<clipPath id="clip0_737_178">
<rect width="20" height="20" fill="white"/>
</clipPath>
</defs>
</svg>
