<svg width="25" height="25" viewBox="0 0 25 25" fill="none" xmlns="http://www.w3.org/2000/svg">
<circle cx="12.5" cy="12.5" r="12" stroke="white"/>
<g clip-path="url(#clip0_25_530)">
<path d="M18.8512 8.53508C18.374 8.74613 17.868 8.88475 17.3499 8.94633C17.896 8.61972 18.3048 8.10571 18.4999 7.50008C17.9874 7.80508 17.4256 8.01883 16.8399 8.13445C16.4466 7.71356 15.9252 7.43443 15.3568 7.34044C14.7884 7.24646 14.2049 7.34288 13.697 7.61473C13.1891 7.88659 12.7852 8.31863 12.5481 8.8437C12.3111 9.36876 12.2542 9.95744 12.3862 10.5182C11.3469 10.4661 10.3301 10.196 9.402 9.72549C8.47384 9.25495 7.65502 8.59448 6.99869 7.78695C6.76637 8.18598 6.64429 8.63959 6.64494 9.10133C6.64494 10.0076 7.10619 10.8082 7.80744 11.277C7.39245 11.2639 6.98659 11.1518 6.62369 10.9501V10.9826C6.62382 11.5861 6.83267 12.1711 7.21485 12.6382C7.59702 13.1054 8.12899 13.426 8.72057 13.5457C8.33533 13.6501 7.93138 13.6655 7.53932 13.5907C7.70611 14.1102 8.0312 14.5646 8.46906 14.8901C8.90693 15.2157 9.43565 15.3962 9.98119 15.4063C9.43899 15.8322 8.81818 16.1469 8.15424 16.3327C7.49031 16.5184 6.79627 16.5715 6.11182 16.4888C7.30663 17.2572 8.6975 17.6652 10.1181 17.6638C14.9262 17.6638 17.5556 13.6807 17.5556 10.2263C17.5556 10.1138 17.5524 10.0001 17.5474 9.88883C18.0592 9.51893 18.5009 9.06071 18.8518 8.5357L18.8512 8.53508Z" fill="white"/>
</g>
<defs>
<clipPath id="clip0_25_530">
<rect width="15" height="15" fill="white" transform="translate(5 5)"/>
</clipPath>
</defs>
</svg>
