<svg width="20" height="20" viewBox="0 0 20 20" fill="none" xmlns="http://www.w3.org/2000/svg">
<path d="M16.6663 18.3333H3.33301V16.6666C3.33301 15.5616 3.77199 14.5018 4.5534 13.7204C5.3348 12.939 6.39461 12.5 7.49967 12.5H12.4997C13.6047 12.5 14.6646 12.939 15.446 13.7204C16.2274 14.5018 16.6663 15.5616 16.6663 16.6666V18.3333ZM9.99967 10.8333C9.34306 10.8333 8.69289 10.704 8.08626 10.4527C7.47963 10.2014 6.92843 9.83314 6.46414 9.36885C5.99985 8.90455 5.63155 8.35336 5.38028 7.74673C5.129 7.1401 4.99967 6.48992 4.99967 5.83331C4.99967 5.1767 5.129 4.52652 5.38028 3.9199C5.63155 3.31327 5.99985 2.76207 6.46414 2.29778C6.92843 1.83349 7.47963 1.46519 8.08626 1.21392C8.69289 0.962642 9.34306 0.833313 9.99967 0.833313C11.3258 0.833313 12.5975 1.3601 13.5352 2.29778C14.4729 3.23546 14.9997 4.50723 14.9997 5.83331C14.9997 7.1594 14.4729 8.43116 13.5352 9.36885C12.5975 10.3065 11.3258 10.8333 9.99967 10.8333V10.8333Z" fill="url(#paint0_linear_737_199)"/>
<defs>
<linearGradient id="paint0_linear_737_199" x1="3.33301" y1="2.05167" x2="17.8975" y2="4.58168" gradientUnits="userSpaceOnUse">
<stop stop-color="#F36929"/>
<stop offset="1" stop-color="#FBB040"/>
</linearGradient>
</defs>
</svg>
