<svg width="25" height="25" viewBox="0 0 25 25" fill="none" xmlns="http://www.w3.org/2000/svg">
<circle cx="12.5" cy="12.5" r="12" stroke="white"/>
<g clip-path="url(#clip0_25_533)">
<path d="M6.25251 18.75L7.09751 15.645C6.54072 14.6905 6.24819 13.605 6.25001 12.5C6.25001 9.04813 9.04813 6.25 12.5 6.25C15.9519 6.25 18.75 9.04813 18.75 12.5C18.75 15.9519 15.9519 18.75 12.5 18.75C11.3955 18.7518 10.3104 18.4595 9.35626 17.9031L6.25251 18.75ZM10.2444 9.5675C10.1637 9.57251 10.0848 9.59377 10.0125 9.63C9.94471 9.66839 9.88282 9.71639 9.82876 9.7725C9.75376 9.84313 9.71126 9.90437 9.66563 9.96375C9.43464 10.2644 9.31039 10.6334 9.31251 11.0125C9.31376 11.3187 9.39376 11.6169 9.51876 11.8956C9.77438 12.4594 10.195 13.0562 10.7506 13.6094C10.8844 13.7425 11.015 13.8762 11.1556 14.0006C11.8453 14.6078 12.667 15.0456 13.5556 15.2794L13.9113 15.3337C14.0269 15.34 14.1425 15.3313 14.2588 15.3256C14.4408 15.3162 14.6185 15.2669 14.7794 15.1813C14.8831 15.1263 14.9319 15.0988 15.0188 15.0437C15.0188 15.0437 15.0456 15.0262 15.0969 14.9875C15.1813 14.925 15.2331 14.8806 15.3031 14.8075C15.355 14.7537 15.4 14.6906 15.4344 14.6188C15.4831 14.5169 15.5319 14.3225 15.5519 14.1606C15.5669 14.0369 15.5625 13.9694 15.5606 13.9275C15.5581 13.8606 15.5025 13.7913 15.4419 13.7619L15.0781 13.5988C15.0781 13.5988 14.5344 13.3619 14.2025 13.2106C14.1675 13.1954 14.13 13.1867 14.0919 13.185C14.0491 13.1806 14.0059 13.1854 13.9652 13.1991C13.9244 13.2128 13.8871 13.2351 13.8556 13.2644V13.2631C13.8525 13.2631 13.8106 13.2988 13.3588 13.8463C13.3328 13.8811 13.2971 13.9074 13.2561 13.9219C13.2152 13.9364 13.1708 13.9383 13.1288 13.9275C13.088 13.9166 13.0481 13.9028 13.0094 13.8863C12.9319 13.8538 12.905 13.8412 12.8519 13.8181L12.8488 13.8169C12.4912 13.6608 12.1601 13.4499 11.8675 13.1919C11.7888 13.1231 11.7156 13.0481 11.6406 12.9756C11.3947 12.7401 11.1805 12.4738 11.0031 12.1831L10.9663 12.1237C10.9398 12.0839 10.9184 12.0408 10.9025 11.9956C10.8788 11.9037 10.9406 11.83 10.9406 11.83C10.9406 11.83 11.0925 11.6637 11.1631 11.5737C11.2219 11.499 11.2768 11.4211 11.3275 11.3406C11.4013 11.2219 11.4244 11.1 11.3856 11.0056C11.2106 10.5781 11.0294 10.1525 10.8431 9.73C10.8063 9.64625 10.6969 9.58625 10.5975 9.57437C10.5638 9.57062 10.53 9.56687 10.4963 9.56437C10.4123 9.5602 10.3282 9.56104 10.2444 9.56687V9.5675Z" fill="white"/>
</g>
<defs>
<clipPath id="clip0_25_533">
<rect width="15" height="15" fill="white" transform="translate(5 5)"/>
</clipPath>
</defs>
</svg>
